<?xml version="1.0" encoding="UTF-8"?><svg xmlns="http://www.w3.org/2000/svg" viewBox="0 0 1050.07 412.85" width="100%" height="100%"><title>CartaTravel Logo</title><path d="M284.26,327.38A110.1,110.1,0,0,1,151.1,274.72H107.29a150.29,150.29,0,0,0,130.43,98.39l46.54,56.58V327.38Z" transform="translate(-42.03 -16.85)" fill="#ff813c" data-color-group="0"/><path d="M212.62,119.16a110.09,110.09,0,0,1,133.16,52.66H389.6a150.3,150.3,0,0,0-130.42-98.4L212.62,16.85V119.16Z" transform="translate(-42.03 -16.85)" fill="#2b3b9e" data-color-group="1"/><path d="M144.33,259.08A110.08,110.08,0,0,1,197,125.93V82.11A150.3,150.3,0,0,0,98.6,212.54L42,259.08H144.33Z" transform="translate(-42.03 -16.85)" fill="#2b3b9e" data-color-group="1"/><path d="M352.56,187.45A110.1,110.1,0,0,1,299.9,320.61v43.81A150.31,150.31,0,0,0,398.29,234l56.57-46.54H352.56Z" transform="translate(-42.03 -16.85)" fill="#ff813c" data-color-group="0"/><path d="M169.36,223.35c0-45.34,33.68-80.12,80.12-80.12,28,0,52.6,13.87,66,35.66L285.13,196.5c-6.82-11.88-20-18.93-35.65-18.93-27.29,0-44.9,18.27-44.9,45.78s17.61,45.78,44.9,45.78c15.63,0,29.05-7,35.65-18.93l30.37,17.61c-13.21,21.79-37.86,35.66-66,35.66C203,303.47,169.36,268.69,169.36,223.35Z" transform="translate(-42.03 -16.85)" fill="#2b3b9e" data-color-group="1"/><path d="M485.4,145.78c0-36.49,27.1-64.48,64.48-64.48,22.5,0,42.34,11.16,53.14,28.7l-24.44,14.17c-5.49-9.56-16.12-15.23-28.69-15.23-22,0-36.14,14.7-36.14,36.84s14.17,36.84,36.14,36.84c12.58,0,23.38-5.67,28.69-15.23L603,181.56c-10.63,17.54-30.47,28.7-53.14,28.7C512.5,210.26,485.4,182.27,485.4,145.78Z" transform="translate(-42.03 -16.85)" fill="#2b3b9e" data-color-group="1"/><path d="M688.93,188.29H642.87l-6.2,19.48h-31l42.16-124H684l42.16,124h-31Zm-8.5-26.57L665.9,116.2l-14.52,45.52h29Z" transform="translate(-42.03 -16.85)" fill="#2b3b9e" data-color-group="1"/><path d="M778.56,167H765.1v40.74H736.76v-124h49.6a42.41,42.41,0,0,1,42.51,42.51c0,15.23-9.21,29.05-22.85,36l26.39,45.52H801.94Zm-13.46-24.8h21.26c7.79,0,14.17-6.91,14.17-15.94s-6.38-15.94-14.17-15.94H765.1v31.88Z" transform="translate(-42.03 -16.85)" fill="#2b3b9e" data-color-group="1"/><path d="M926.3,111.06H894.41v96.72H866.07V111.06H834.18V83.78H926.3v27.28Z" transform="translate(-42.03 -16.85)" fill="#2b3b9e" data-color-group="1"/><path d="M1002.47,188.29H956.41l-6.2,19.48h-31l42.16-124h36.14l42.16,124h-31ZM994,161.72L979.44,116.2l-14.52,45.52h29Z" transform="translate(-42.03 -16.85)" fill="#2b3b9e" data-color-group="1"/><path d="M574,268.52H542.08v96.72H513.74V268.52H481.85V241.24H574v27.28Z" transform="translate(-42.03 -16.85)" fill="#ff813c" data-color-group="0"/><path d="M628.17,324.5H614.71v40.74H586.36v-124H636a42.41,42.41,0,0,1,42.51,42.51c0,15.23-9.21,29.05-22.85,36L682,365.24H651.55Zm-13.46-24.8H636c7.79,0,14.17-6.91,14.17-15.94s-6.38-15.94-14.17-15.94H614.71V299.7Z" transform="translate(-42.03 -16.85)" fill="#ff813c" data-color-group="0"/><path d="M767.93,345.75H721.88l-6.2,19.48h-31l42.16-124H763l42.16,124h-31Zm-8.5-26.57L744.9,273.66l-14.52,45.52h29Z" transform="translate(-42.03 -16.85)" fill="#ff813c" data-color-group="0"/><path d="M798,241.24h31l27.46,91.23L884,241.24h31l-40.39,124H838.44Z" transform="translate(-42.03 -16.85)" fill="#ff813c" data-color-group="0"/><path d="M1003.53,338v27.28H925.59v-124h77.06v27.28H953.93v20.55h44.29V316H953.93v22h49.6Z" transform="translate(-42.03 -16.85)" fill="#ff813c" data-color-group="0"/><path d="M1092.1,338v27.28h-72.63v-124h28.34V338h44.29Z" transform="translate(-42.03 -16.85)" fill="#ff813c" data-color-group="0"/></svg>