<?xml version="1.0" encoding="UTF-8"?><svg xmlns="http://www.w3.org/2000/svg" xmlns:xlink="http://www.w3.org/1999/xlink" version="1.0" id="Layer_1" x="0px" y="0px" viewBox="0 0 500 136" style="enable-background:new 0 0 500 136;" xml:space="preserve" width="100%" height="100%"><path d="M212.8,41.4c16.4,0,27.9,10.8,27.9,26.5c0,15.6-11.6,26.5-28.3,26.5h-22v-53H212.8z M202.2,84.4h10.8 c8.9,0,15.4-6.7,15.4-16.4c0-9.8-6.8-16.5-15.9-16.5h-10.3V84.4z" fill="#E4272E" data-color-group="1"/><path d="M253.1,94.4v-53h12v53H253.1z" fill="#E4272E" data-color-group="1"/><path d="M305.5,79.3h-1.1h-11.1v15.1h-12v-53h23c13.9,0,21.7,6.7,21.7,18.4c0,8.2-3.5,14.1-9.9,17.1 l11.3,17.5h-13.6L305.5,79.3z M304.3,69.3c6.6,0,10.4-3,10.4-9.1c0-5.9-3.8-8.9-10.4-8.9h-11.1v17.9H304.3z" fill="#E4272E" data-color-group="1"/><path d="M352.6,51.3v11.5h25.6v9.9h-25.6v11.7h29.2v9.9h-41.2v-53H381v9.9H352.6z" fill="#E4272E" data-color-group="1"/><path d="M441.2,49.8l-7,8.5c-3.6-4.2-8.9-6.9-13.8-6.9c-9.1,0-16.1,7-16.1,16.3c0,9.2,7,16.4,16.1,16.4 c4.8,0,10-2.4,13.8-6.2l7,7.7c-5.6,5.8-13.7,9.5-21.4,9.5C404,95,392,83.2,392,67.8c0-15.3,12.2-26.8,28.2-26.8 C427.9,41,435.9,44.4,441.2,49.8z" fill="#E4272E" data-color-group="1"/><path d="M475.8,51.6v42.9h-12V51.6h-16.1V41.4H492v10.2H475.8z" fill="#E4272E" data-color-group="1"/><g><path d="M57.7,49.8l-7,8.5c-3.6-4.2-8.9-6.9-13.8-6.9c-9.1,0-16.1,7-16.1,16.3c0,9.2,7,16.4,16.1,16.4 c4.8,0,10-2.4,13.8-6.2l7,7.7C52.1,91.3,44,95,36.3,95C20.5,95,8.5,83.2,8.5,67.8C8.5,52.5,20.7,41,36.8,41 C44.4,41,52.4,44.4,57.7,49.8z" fill="#242222" data-color-group="0"/><path d="M79.3,84.1l-4.2,10.3H62.8l23-53h12.3l22.6,53H108l-4.2-10.3H79.3z M91.7,53.9l-8.4,20.6H100 L91.7,53.9z" fill="#242222" data-color-group="0"/><path d="M155.1,79.3h-1.1h-11.1v15.1h-12v-53h23c13.9,0,21.7,6.7,21.7,18.4c0,8.2-3.5,14.1-9.9,17.1 L177,94.4h-13.6L155.1,79.3z M153.9,69.3c6.6,0,10.4-3,10.4-9.1c0-5.9-3.8-8.9-10.4-8.9h-11.1v17.9H153.9z" fill="#242222" data-color-group="0"/><rect x="5.5" y="122.4" width="489.5" height="9.1" fill="#242222" data-color-group="0"/><rect x="5.5" y="4.5" width="489.5" height="9.1" fill="#242222" data-color-group="0"/></g></svg>