<?xml version="1.0" encoding="UTF-8"?><svg xmlns="http://www.w3.org/2000/svg" xmlns:xlink="http://www.w3.org/1999/xlink" version="1.0" id="Layer_1" x="0px" y="0px" viewBox="0 0 500 136" style="enable-background:new 0 0 500 136;" xml:space="preserve" width="100%" height="100%"><g><g><path d="M132.2,89.8v-41h18c8.6,0,13.4,5.9,13.4,12.9s-4.9,12.9-13.4,12.9h-10.8v15.3H132.2z M156.3,61.6 c0-3.9-3-6.5-7-6.5h-9.8v13h9.8C153.3,68.1,156.3,65.6,156.3,61.6z" fill="#ffffff" data-color-group="9"/><path d="M169,69.3c0-12.2,8.7-21.2,21-21.2c12.3,0,21,9,21,21.2s-8.7,21.2-21,21.2 C177.7,90.5,169,81.5,169,69.3z M203.5,69.3c0-8.5-5.3-14.8-13.6-14.8c-8.3,0-13.6,6.3-13.6,14.8c0,8.4,5.3,14.8,13.6,14.8 C198.2,84.1,203.5,77.7,203.5,69.3z" fill="#ffffff" data-color-group="9"/><path d="M217.1,89.8v-41h7.2v34.7h18.1v6.3H217.1z" fill="#ffffff" data-color-group="9"/><path d="M280.8,89.8l-3-7.9H259l-3,7.9h-8.2l16.1-41h9l16.1,41H280.8z M268.4,56L261,75.6h14.8L268.4,56z" fill="#ffffff" data-color-group="9"/><path d="M318.2,89.8l-9.1-15.3h-7.1v15.3h-7.2v-41h18c8.1,0,13.4,5.3,13.4,12.9c0,7.3-4.8,11.3-9.7,12.1 l10,16.1H318.2z M318.8,61.6c0-3.9-3-6.5-7-6.5h-9.8v13h9.8C315.8,68.1,318.8,65.6,318.8,61.6z" fill="#ffffff" data-color-group="9"/><path d="M335.6,89.8v-41h28.1v6.3h-20.9v10.6h20.5v6.3h-20.5v11.4h20.9v6.3H335.6z" fill="#ffffff" data-color-group="9"/><path d="M384.9,89.8v-17l-15.9-24h8.2l11.3,17.6l11.2-17.6h8.2l-15.9,24v17H384.9z" fill="#ffffff" data-color-group="9"/><path d="M413.7,89.8v-41h28.1v6.3h-20.9v10.6h20.5v6.3h-20.5v11.4h20.9v6.3H413.7z" fill="#ffffff" data-color-group="9"/><path d="M448.7,89.8v-5.8l21-28.8h-21v-6.3H479v5.8l-21,28.8h21.4v6.3H448.7z" fill="#ffffff" data-color-group="9"/></g><g><rect x="23.1" y="56.9" transform="matrix(0.7071 -0.7071 0.7071 0.7071 -38.045 44.1512)" width="22.3" height="22.3" fill="#D8DC24" data-color-group="8"/><rect x="38.9" y="41.1" transform="matrix(0.7071 -0.7071 0.7071 0.7071 -22.2959 50.6747)" width="22.3" height="22.3" fill="#9FC140" data-color-group="7"/><rect x="54.6" y="25.4" transform="matrix(0.7071 -0.7071 0.7071 0.7071 -6.5469 57.1982)" width="22.3" height="22.3" fill="#3A643B" data-color-group="6"/><rect x="38.9" y="72.6" transform="matrix(0.7071 -0.7071 0.7071 0.7071 -44.5685 59.9003)" width="22.3" height="22.3" fill="#43D6B7" data-color-group="5"/><rect x="54.6" y="56.9" transform="matrix(0.7071 -0.7071 0.7071 0.7071 -28.8194 66.4238)" width="22.3" height="22.3" fill="#67A6FF" data-color-group="4"/><rect x="70.4" y="41.1" transform="matrix(0.7071 -0.7071 0.7071 0.7071 -13.0703 72.9473)" width="22.3" height="22.3" fill="#5A3890" data-color-group="3"/><rect x="54.6" y="88.4" transform="matrix(0.7071 -0.7071 0.7071 0.7071 -51.092 75.6494)" width="22.3" height="22.3" fill="#DF9820" data-color-group="2"/><rect x="70.4" y="72.6" transform="matrix(0.7071 -0.7071 0.7071 0.7071 -35.3429 82.1729)" width="22.3" height="22.3" fill="#CA4327" data-color-group="1"/><rect x="86.1" y="56.9" transform="matrix(0.7071 -0.7071 0.7071 0.7071 -19.5938 88.6963)" width="22.3" height="22.3" fill="#873563" data-color-group="0"/></g></g></svg>